PathFileType	4	(X/Y/Z)	/Users/itak/Documents/Research/Walk-IL/dataset/trc/00128_00007.trc
DataRate	CameraRate	NumFrames	NumMarkers	Units	OrigDataRate	OrigDataStartFrame	OrigNumFrames
100.000000	100.000000	4	53	mm	100.000000	548	877
Frame#	Time	RPSI			LPSI			L3			STRN			T10			C7			CLAV			RBAK			LBAK			LSHO			LUPA			LAEL			LAOL			LWTS			LWPS			LFRA			LIFD			LHPS			LHTS			RSHO			RUPA			RAEL			RAOL			RWTS			RWPS			RFRA			RIFD			RHTS			RHPS			RBHD			LFHD			RFHD			LBHD			LHIP			RHIP			RASI			LASI			LKNE			LTHI			LANK			LTIP			LTOE			LMT1			LMT5			LHEE			RKNE			RTHI			RANK			RTIP			RTOE			RMT1			RMT5			RHEE			
		X1	Y1	Z1	X2	Y2	Z2	X3	Y3	Z3	X4	Y4	Z4	X5	Y5	Z5	X6	Y6	Z6	X7	Y7	Z7	X8	Y8	Z8	X9	Y9	Z9	X10	Y10	Z10	X11	Y11	Z11	X12	Y12	Z12	X13	Y13	Z13	X14	Y14	Z14	X15	Y15	Z15	X16	Y16	Z16	X17	Y17	Z17	X18	Y18	Z18	X19	Y19	Z19	X20	Y20	Z20	X21	Y21	Z21	X22	Y22	Z22	X23	Y23	Z23	X24	Y24	Z24	X25	Y25	Z25	X26	Y26	Z26	X27	Y27	Z27	X28	Y28	Z28	X29	Y29	Z29	X30	Y30	Z30	X31	Y31	Z31	X32	Y32	Z32	X33	Y33	Z33	X34	Y34	Z34	X35	Y35	Z35	X36	Y36	Z36	X37	Y37	Z37	X38	Y38	Z38	X39	Y39	Z39	X40	Y40	Z40	X41	Y41	Z41	X42	Y42	Z42	X43	Y43	Z43	X44	Y44	Z44	X45	Y45	Z45	X46	Y46	Z46	X47	Y47	Z47	X48	Y48	Z48	X49	Y49	Z49	X50	Y50	Z50	X51	Y51	Z51	X52	Y52	Z52	X53	Y53	Z53	

549	5.48	696.1511840820312	1106.804077148438	288.5135192871094	830.8018188476562	1107.959838867188	289.8988037109375	766.9111938476562	1142.998413085938	281.113525390625	764.213623046875	1352.144409179688	494.4300231933594	772.2772216796875	1293.725463867188	240.2931518554688	788.7352294921875	1586.161010742188	263.6205444335938	767.9994506835938	1485.077026367188	451.2957763671875	704.0437622070312	1398.052124023438	214.4702301025391	890.3201293945312	1567.470581054688	263.9794311523438	952.2537841796875	1558.16357421875	354.9480590820312	1024.026611328125	1426.3955078125	345.4469604492188	1048.265502929688	1208.682983398438	368.1615600585938	996.1091918945312	1194.20068359375	298.6395568847656	1007.185852050781	944.2034912109375	455.5321655273438	1043.00341796875	924.845703125	376.1430358886719	1054.930786132812	1092.572143554688	382.7701110839844	985.7606811523438	750.5773315429688	448.5001220703125	1041.659301757812	847.423095703125	399.2321472167969	1017.306030273438	852.3177490234375	464.5928344726562	603.1898193359375	1566.563720703125	308.0718383789062	541.8346557617188	1492.289428710938	287.0148010253906	527.7503662109375	1198.584838867188	274.6224365234375	625.4109497070312	1199.806396484375	278.44091796875	521.0657348632812	958.1212158203125	419.8636779785156	503.3218994140625	939.238037109375	340.6590576171875	509.8432006835938	1125.704467773438	295.6813049316406	537.7020263671875	764.6740112304688	450.7002563476562	511.4353942871094	849.7232055664062	449.3956909179688	493.7135009765625	839.8161010742188	377.4592590332031	706.998046875	1753.82763671875	284.6922912597656	775.5867919921875	1832.18603515625	479.5255432128906	653.2810668945312	1815.553344726562	442.436279296875	836.8987426757812	1775.802734375	314.8154907226562	939.8687133789062	1024.79248046875	384.2398681640625	579.1608276367188	1016.610656738281	419.7685241699219	632.9464111328125	1093.9423828125	497.5454406738281	897.7570190429688	1092.341186523438	491.3094787597656	944.2974243164062	517.0198974609375	466.9137878417969	957.3250732421875	668.8986206054688	432.9823913574219	938.7798461914062	211.3618621826172	20.7508373260498	966.9104614257812	383.936279296875	225.3099670410156	892.8176879882812	17.70027732849121	132.3329010009766	856.7396850585938	86.0711669921875	108.2113876342773	959.224365234375	93.82404327392578	59.92763137817383	875.40283203125	274.4794616699219	5.364449024200439	660.7499389648438	529.334228515625	486.5502319335938	599.8731689453125	807.13671875	465.4162292480469	761.119384765625	25.37932205200195	473.8839721679688	668.4210815429688	393.2096862792969	483.1529541015625	745.7918701171875	60.40574645996094	703.00732421875	798.908447265625	41.14641189575195	661.552978515625	700.9661254882812	44.90324401855469	591.2396850585938	825.14111328125	23.78690910339355	436.0289001464844	
550	5.49	696.7689819335938	1107.193969726562	295.0049743652344	831.5067138671875	1107.99365234375	297.92333984375	767.4243774414062	1142.893310546875	288.4876098632812	762.3622436523438	1352.77490234375	501.5047912597656	772.9898071289062	1293.882690429688	247.7006378173828	788.80322265625	1586.505249023438	270.7649841308594	766.7442626953125	1485.683349609375	458.37841796875	704.0096435546875	1398.6142578125	221.1784515380859	890.2381591796875	1567.533081054688	271.686279296875	951.8419189453125	1558.22705078125	362.9365539550781	1023.216491699219	1426.162475585938	353.3724670410156	1046.461181640625	1208.326416015625	375.259033203125	994.347412109375	1194.420776367188	305.6301574707031	1004.912353515625	942.8311157226562	459.6116333007812	1041.061157226562	924.575439453125	380.1019287109375	1052.91064453125	1092.140869140625	388.8355712890625	983.9271240234375	749.1995239257812	449.6982421875	1039.855346679688	846.9024658203125	402.1632995605469	1015.214660644531	850.8357543945312	467.4783020019531	602.977294921875	1567.422973632812	314.1278686523438	541.5093994140625	1493.261840820312	292.8455200195312	526.4423828125	1199.530029296875	280.9963989257812	624.0859375	1200.451171875	285.1233215332031	518.2636108398438	960.3203735351562	428.2291564941406	500.81640625	940.6950073242188	349.0599365234375	508.1468200683594	1126.759765625	302.4810180664062	533.91845703125	767.019287109375	460.84814453125	507.99462890625	852.1900634765625	458.6184387207031	490.6405334472656	841.671875	386.7436828613281	707.5653076171875	1754.491088867188	291.3217163085938	775.1080322265625	1832.707397460938	486.5149230957031	652.9983520507812	1816.552978515625	448.609375	837.3400268554688	1775.986572265625	322.3126525878906	938.9507446289062	1024.966674804688	394.3515930175781	577.8106689453125	1017.190063476562	424.6630859375	630.4354858398438	1094.663818359375	503.1358947753906	895.383056640625	1093.0283203125	500.4173889160156	940.1887817382812	517.97998046875	486.9684753417969	954.6100463867188	669.421875	450.1824340820312	943.8563232421875	214.7512359619141	39.4760627746582	968.0763549804688	385.112548828125	245.9035186767578	895.3818969726562	18.47881698608398	148.2239685058594	859.67236328125	88.62854766845703	124.1745376586914	963.3882446289062	97.04922485351562	78.42079925537109	881.0231323242188	277.8865661621094	22.82924842834473	660.2456665039062	529.3932495117188	489.8483581542969	598.6073608398438	807.26806640625	469.8909606933594	761.1306762695312	25.37814712524414	474.0955810546875	668.1207275390625	393.1903686523438	485.8213195800781	746.3923950195312	58.84813690185547	703.7486572265625	799.307861328125	40.23916625976562	661.66845703125	701.2279663085938	44.94401931762695	591.6033935546875	824.9561767578125	23.84197807312012	435.9983825683594	
551	5.5	697.373046875	1107.547119140625	301.3831787109375	832.1727905273438	1108.110107421875	305.9409790039062	767.9583740234375	1142.863159179688	295.73876953125	760.4822387695312	1353.395141601562	508.4698181152344	773.7263793945312	1294.028686523438	255.0547943115234	788.8564453125	1586.8544921875	277.8436889648438	765.5006103515625	1486.281127929688	465.3842163085938	703.999755859375	1399.185424804688	227.7930603027344	890.12744140625	1567.614379882812	279.3256530761719	951.4178466796875	1558.355590820312	370.8651428222656	1022.431701660156	1426.015014648438	361.1516723632812	1044.692749023438	1208.052124023438	382.0039367675781	992.4365234375	1194.716674804688	312.4043273925781	1002.7783203125	941.749755859375	463.826171875	1038.930786132812	924.4171752929688	384.1114807128906	1050.907592773438	1091.79736328125	394.6442260742188	982.2117309570312	748.1776733398438	451.6270751953125	1037.921997070312	846.5577392578125	405.3243713378906	1013.300354003906	849.703369140625	470.6732788085938	602.7703247070312	1568.256469726562	320.1162719726562	541.1917114257812	1494.2109375	298.6145324707031	525.105712890625	1200.465942382812	287.2411193847656	622.7324829101562	1201.075805664062	291.6688537597656	515.444091796875	962.5169067382812	436.4383850097656	498.2814331054688	942.1574096679688	357.3185424804688	506.4310302734375	1127.802124023438	309.1486206054688	530.100341796875	769.39990234375	470.8556823730469	504.5234069824219	854.6941528320312	467.7107849121094	487.5393676757812	843.5426635742188	395.8856811523438	708.1019287109375	1755.20068359375	297.9220886230469	774.7010498046875	1833.16455078125	493.4552612304688	652.7841796875	1817.562133789062	454.8023376464844	837.7647094726562	1776.151611328125	329.7344055175781	937.9857788085938	1025.24658203125	404.4189758300781	576.4976806640625	1017.726684570312	429.4091491699219	627.86279296875	1095.341552734375	508.5086669921875	892.9380493164062	1093.73583984375	509.4584350585938	935.6234130859375	519.1989135742188	506.7672424316406	951.5584716796875	670.13134765625	467.1579895019531	948.7760620117188	216.8059387207031	59.17928695678711	968.7481689453125	386.053955078125	266.5857543945312	898.14599609375	19.83670425415039	167.3502960205078	862.703857421875	90.78243255615234	142.3508148193359	967.6373291015625	99.52467346191406	99.30474090576172	886.4094848632812	279.6240234375	40.47729110717773	659.7901000976562	529.4608764648438	493.1240234375	597.4232177734375	807.29638671875	474.2267150878906	761.1741333007812	25.36184692382812	474.3326416015625	667.8431396484375	393.1567077636719	488.4314575195312	746.9757690429688	57.26948547363281	704.5379028320312	799.6947631835938	39.35648727416992	661.793212890625	701.4780883789062	44.98301315307617	591.9962768554688	824.7758178710938	23.90483474731445	435.9861755371094	
552	5.51	697.947509765625	1107.855834960938	307.6618957519531	832.7622680664062	1108.284912109375	313.97216796875	768.4890747070312	1142.909790039062	302.8771057128906	758.5547485351562	1353.99755859375	515.3355102539062	774.4465942382812	1294.176025390625	262.3564147949219	788.907470703125	1587.212158203125	284.872802734375	764.2579345703125	1486.860961914062	472.3194580078125	704.0433349609375	1399.760009765625	234.3152313232422	890.0094604492188	1567.716430664062	286.9339904785156	950.9819946289062	1558.53271484375	378.7750244140625	1021.68115234375	1425.939819335938	368.8384094238281	1042.989624023438	1207.84326171875	388.4408264160156	990.438720703125	1195.076904296875	318.9803161621094	1000.771911621094	940.9288330078125	468.1990051269531	1036.625366210938	924.332763671875	388.1977233886719	1048.943481445312	1091.520874023438	400.2310180664062	980.5052490234375	747.4678344726562	454.3045959472656	1035.823608398438	846.3388671875	408.7383422851562	1011.497680664062	848.8759765625	474.2011413574219	602.5672607421875	1569.0556640625	326.0228576660156	540.8883666992188	1495.128784179688	304.2941589355469	523.7525634765625	1201.374755859375	293.3597717285156	621.3554077148438	1201.661254882812	298.0942687988281	512.62158203125	964.693603515625	444.4910278320312	495.7159729003906	943.6204833984375	365.4414367675781	504.7103576660156	1128.82177734375	315.6893005371094	526.281982421875	771.8104858398438	480.7098388671875	501.0435791015625	857.2108154296875	476.6622314453125	484.4103698730469	845.4227294921875	404.8816528320312	708.6080322265625	1755.93798828125	304.4902954101562	774.34033203125	1833.57470703125	500.3493041992188	652.6172485351562	1818.573120117188	461.0051879882812	838.16748046875	1776.300048828125	337.0895080566406	936.9569091796875	1025.624755859375	414.4452514648438	575.2075805664062	1018.200317382812	433.9971618652344	625.234619140625	1095.959350585938	513.693115234375	890.4093017578125	1094.461791992188	518.4307250976562	930.6552734375	520.692626953125	526.2584228515625	948.2122802734375	671.04345703125	483.8759155273438	953.5296630859375	217.5865631103516	79.82829284667969	968.9322509765625	386.7948913574219	287.3019409179688	901.023681640625	21.54277038574219	189.4502410888672	865.7890014648438	92.43060302734375	162.5857696533203	971.9154663085938	101.2658615112305	122.4088134765625	891.5728759765625	279.744873046875	58.37001800537109	659.3546752929688	529.5171508789062	496.3442993164062	596.3116455078125	807.222900390625	478.3965148925781	761.2644653320312	25.33121490478516	474.5902099609375	667.5794677734375	393.1041259765625	490.9563903808594	747.5332641601562	55.68149948120117	705.3616943359375	800.0574340820312	38.51097106933594	661.9200439453125	701.703125	45.01175308227539	592.4185180664062	824.6168212890625	23.97639846801758	435.9985961914062	
